name rise45.9887peak57.8056fall74.9286.mot
datacolumns 19
datarows 36
range 19.56159800000000 19.61992400000000
endheader
time	ground_force1_vx	ground_force1_vy	ground_force1_vz	ground_force1_px	ground_force1_py	ground_force1_pz	ground_force2_vx	ground_force2_vy	ground_force2_vz	ground_force2_px	ground_force2_py	ground_force2_pz	ground_torque1_x	ground_torque1_y	ground_torque1_z	ground_torque2_x	ground_torque2_y	ground_torque2_z	
19.56159800000000	58.93108500000000	769.05082200000004	57.37946300000000	0.29288700000000	0.00000000000000	0.10737400000000	0.00000000000000	0.00000000000000	0.00000000000000	0.00000000000000	0.00000000000000	0.00000000000000	0.00000000000000	20.28143100000000	0.00000000000000	0.00000000000000	0.00000000000000	0.00000000000000	
19.56326400000000	58.17466500000000	770.88227700000004	57.39877500000000	0.29216700000000	0.00000000000000	0.10732800000000	0.00000000000000	0.00000000000000	0.00000000000000	0.00000000000000	0.00000000000000	0.00000000000000	0.00000000000000	20.32497800000000	0.00000000000000	0.00000000000000	0.00000000000000	0.00000000000000	
19.56492800000000	57.42553500000000	772.59710600000005	57.41843200000000	0.29147200000000	0.00000000000000	0.10728300000000	0.00000000000000	0.00000000000000	0.00000000000000	0.00000000000000	0.00000000000000	0.00000000000000	0.00000000000000	20.36937400000000	0.00000000000000	0.00000000000000	0.00000000000000	0.00000000000000	
19.56659800000000	56.68383800000000	774.19425899999999	57.43832000000000	0.29079700000000	0.00000000000000	0.10723800000000	0.00000000000000	0.00000000000000	0.00000000000000	0.00000000000000	0.00000000000000	0.00000000000000	0.00000000000000	20.41445800000000	0.00000000000000	0.00000000000000	0.00000000000000	0.00000000000000	
19.56825700000000	55.94964800000000	775.67284700000005	57.45825100000000	0.29014000000000	0.00000000000000	0.10719400000000	0.00000000000000	0.00000000000000	0.00000000000000	0.00000000000000	0.00000000000000	0.00000000000000	0.00000000000000	20.46003500000000	0.00000000000000	0.00000000000000	0.00000000000000	0.00000000000000	
19.56992500000000	55.22298200000000	777.03215200000000	57.47797100000000	0.28949900000000	0.00000000000000	0.10715200000000	0.00000000000000	0.00000000000000	0.00000000000000	0.00000000000000	0.00000000000000	0.00000000000000	0.00000000000000	20.50587300000000	0.00000000000000	0.00000000000000	0.00000000000000	0.00000000000000	
19.57159600000000	54.50379700000000	778.27163599999994	57.49715900000000	0.28887100000000	0.00000000000000	0.10711000000000	0.00000000000000	0.00000000000000	0.00000000000000	0.00000000000000	0.00000000000000	0.00000000000000	0.00000000000000	20.55171000000000	0.00000000000000	0.00000000000000	0.00000000000000	0.00000000000000	
19.57326200000000	53.79200200000000	779.39095399999997	57.51543900000000	0.28825300000000	0.00000000000000	0.10707000000000	0.00000000000000	0.00000000000000	0.00000000000000	0.00000000000000	0.00000000000000	0.00000000000000	0.00000000000000	20.59725700000000	0.00000000000000	0.00000000000000	0.00000000000000	0.00000000000000	
19.57492900000000	53.08746200000000	780.38995399999999	57.53238300000000	0.28764200000000	0.00000000000000	0.10703100000000	0.00000000000000	0.00000000000000	0.00000000000000	0.00000000000000	0.00000000000000	0.00000000000000	0.00000000000000	20.64219800000000	0.00000000000000	0.00000000000000	0.00000000000000	0.00000000000000	
19.57659600000000	52.39000400000000	781.26869099999999	57.54751600000000	0.28703600000000	0.00000000000000	0.10699300000000	0.00000000000000	0.00000000000000	0.00000000000000	0.00000000000000	0.00000000000000	0.00000000000000	0.00000000000000	20.68619700000000	0.00000000000000	0.00000000000000	0.00000000000000	0.00000000000000	
19.57825900000000	51.69942000000000	782.02742499999999	57.56032300000000	0.28643200000000	0.00000000000000	0.10695700000000	0.00000000000000	0.00000000000000	0.00000000000000	0.00000000000000	0.00000000000000	0.00000000000000	0.00000000000000	20.72889800000000	0.00000000000000	0.00000000000000	0.00000000000000	0.00000000000000	
19.57993000000000	51.01547600000000	782.66663200000005	57.57025600000000	0.28582700000000	0.00000000000000	0.10692200000000	0.00000000000000	0.00000000000000	0.00000000000000	0.00000000000000	0.00000000000000	0.00000000000000	0.00000000000000	20.76993100000000	0.00000000000000	0.00000000000000	0.00000000000000	0.00000000000000	
19.58159000000000	50.33791800000000	783.18700200000001	57.57673700000000	0.28521800000000	0.00000000000000	0.10688900000000	0.00000000000000	0.00000000000000	0.00000000000000	0.00000000000000	0.00000000000000	0.00000000000000	0.00000000000000	20.80891500000000	0.00000000000000	0.00000000000000	0.00000000000000	0.00000000000000	
19.58325900000000	49.66647400000000	783.58944399999996	57.57917100000000	0.28460300000000	0.00000000000000	0.10685700000000	0.00000000000000	0.00000000000000	0.00000000000000	0.00000000000000	0.00000000000000	0.00000000000000	0.00000000000000	20.84546000000000	0.00000000000000	0.00000000000000	0.00000000000000	0.00000000000000	
19.58493200000000	49.00086100000000	783.87508400000002	57.57694400000000	0.28398000000000	0.00000000000000	0.10682700000000	0.00000000000000	0.00000000000000	0.00000000000000	0.00000000000000	0.00000000000000	0.00000000000000	0.00000000000000	20.87917300000000	0.00000000000000	0.00000000000000	0.00000000000000	0.00000000000000	
19.58659800000000	48.34079300000000	784.04526799999996	57.56943500000000	0.28334500000000	0.00000000000000	0.10679900000000	0.00000000000000	0.00000000000000	0.00000000000000	0.00000000000000	0.00000000000000	0.00000000000000	0.00000000000000	20.90965900000000	0.00000000000000	0.00000000000000	0.00000000000000	0.00000000000000	
19.58826100000000	47.68598100000000	784.10155599999996	57.55602200000000	0.28269700000000	0.00000000000000	0.10677200000000	0.00000000000000	0.00000000000000	0.00000000000000	0.00000000000000	0.00000000000000	0.00000000000000	0.00000000000000	20.93652800000000	0.00000000000000	0.00000000000000	0.00000000000000	0.00000000000000	
19.58992700000000	47.03614000000000	784.04572399999995	57.53608400000000	0.28203300000000	0.00000000000000	0.10674600000000	0.00000000000000	0.00000000000000	0.00000000000000	0.00000000000000	0.00000000000000	0.00000000000000	0.00000000000000	20.95939500000000	0.00000000000000	0.00000000000000	0.00000000000000	0.00000000000000	
19.59159300000000	46.39099300000000	783.87975800000004	57.50901000000000	0.28135200000000	0.00000000000000	0.10672300000000	0.00000000000000	0.00000000000000	0.00000000000000	0.00000000000000	0.00000000000000	0.00000000000000	0.00000000000000	20.97788400000000	0.00000000000000	0.00000000000000	0.00000000000000	0.00000000000000	
19.59325700000000	45.75027800000000	783.60584900000003	57.47420400000000	0.28065100000000	0.00000000000000	0.10670100000000	0.00000000000000	0.00000000000000	0.00000000000000	0.00000000000000	0.00000000000000	0.00000000000000	0.00000000000000	20.99163200000000	0.00000000000000	0.00000000000000	0.00000000000000	0.00000000000000	
19.59492600000000	45.11374400000000	783.22638900000004	57.43109300000000	0.27992800000000	0.00000000000000	0.10668000000000	0.00000000000000	0.00000000000000	0.00000000000000	0.00000000000000	0.00000000000000	0.00000000000000	0.00000000000000	21.00029300000000	0.00000000000000	0.00000000000000	0.00000000000000	0.00000000000000	
19.59659800000000	44.48116300000000	782.74396300000001	57.37912600000000	0.27918200000000	0.00000000000000	0.10666100000000	0.00000000000000	0.00000000000000	0.00000000000000	0.00000000000000	0.00000000000000	0.00000000000000	0.00000000000000	21.00354100000000	0.00000000000000	0.00000000000000	0.00000000000000	0.00000000000000	
19.59825900000000	43.85232800000000	782.16134599999998	57.31778400000000	0.27841200000000	0.00000000000000	0.10664400000000	0.00000000000000	0.00000000000000	0.00000000000000	0.00000000000000	0.00000000000000	0.00000000000000	0.00000000000000	21.00107000000000	0.00000000000000	0.00000000000000	0.00000000000000	0.00000000000000	
19.59993000000000	43.22705600000000	781.48148800000001	57.24658200000000	0.27761600000000	0.00000000000000	0.10662800000000	0.00000000000000	0.00000000000000	0.00000000000000	0.00000000000000	0.00000000000000	0.00000000000000	0.00000000000000	20.99260000000000	0.00000000000000	0.00000000000000	0.00000000000000	0.00000000000000	
19.60159500000000	42.60519200000000	780.70750999999996	57.16507700000000	0.27679300000000	0.00000000000000	0.10661400000000	0.00000000000000	0.00000000000000	0.00000000000000	0.00000000000000	0.00000000000000	0.00000000000000	0.00000000000000	20.97787600000000	0.00000000000000	0.00000000000000	0.00000000000000	0.00000000000000	
19.60325900000000	41.98660900000000	779.84269600000005	57.07286500000000	0.27594200000000	0.00000000000000	0.10660100000000	0.00000000000000	0.00000000000000	0.00000000000000	0.00000000000000	0.00000000000000	0.00000000000000	0.00000000000000	20.95667600000000	0.00000000000000	0.00000000000000	0.00000000000000	0.00000000000000	
19.60492500000000	41.37121000000000	778.89047800000003	56.96959000000000	0.27506300000000	0.00000000000000	0.10658900000000	0.00000000000000	0.00000000000000	0.00000000000000	0.00000000000000	0.00000000000000	0.00000000000000	0.00000000000000	20.92880700000000	0.00000000000000	0.00000000000000	0.00000000000000	0.00000000000000	
19.60659300000000	40.75893100000000	777.85443099999998	56.85494600000000	0.27415400000000	0.00000000000000	0.10657900000000	0.00000000000000	0.00000000000000	0.00000000000000	0.00000000000000	0.00000000000000	0.00000000000000	0.00000000000000	20.89410800000000	0.00000000000000	0.00000000000000	0.00000000000000	0.00000000000000	
19.60825700000000	40.14973700000000	776.73825699999998	56.72867700000000	0.27321600000000	0.00000000000000	0.10657000000000	0.00000000000000	0.00000000000000	0.00000000000000	0.00000000000000	0.00000000000000	0.00000000000000	0.00000000000000	20.85245400000000	0.00000000000000	0.00000000000000	0.00000000000000	0.00000000000000	
19.60992400000000	39.54362700000000	775.54578000000004	56.59058100000000	0.27224900000000	0.00000000000000	0.10656200000000	0.00000000000000	0.00000000000000	0.00000000000000	0.00000000000000	0.00000000000000	0.00000000000000	0.00000000000000	20.80375600000000	0.00000000000000	0.00000000000000	0.00000000000000	0.00000000000000	
19.61159300000000	38.94063300000000	774.28092700000002	56.44051300000000	0.27125200000000	0.00000000000000	0.10655600000000	0.00000000000000	0.00000000000000	0.00000000000000	0.00000000000000	0.00000000000000	0.00000000000000	0.00000000000000	20.74796000000000	0.00000000000000	0.00000000000000	0.00000000000000	0.00000000000000	
19.61325600000000	38.34081700000000	772.94772399999999	56.27838200000000	0.27022600000000	0.00000000000000	0.10655000000000	0.00000000000000	0.00000000000000	0.00000000000000	0.00000000000000	0.00000000000000	0.00000000000000	0.00000000000000	20.68504900000000	0.00000000000000	0.00000000000000	0.00000000000000	0.00000000000000	
19.61493000000000	37.74427200000000	771.55027700000005	56.10415800000000	0.26917200000000	0.00000000000000	0.10654500000000	0.00000000000000	0.00000000000000	0.00000000000000	0.00000000000000	0.00000000000000	0.00000000000000	0.00000000000000	20.61504400000000	0.00000000000000	0.00000000000000	0.00000000000000	0.00000000000000	
19.61659800000000	37.15112300000000	770.09276699999998	55.91786400000000	0.26809000000000	0.00000000000000	0.10654100000000	0.00000000000000	0.00000000000000	0.00000000000000	0.00000000000000	0.00000000000000	0.00000000000000	0.00000000000000	20.53800100000000	0.00000000000000	0.00000000000000	0.00000000000000	0.00000000000000	
19.61826100000000	36.56152000000000	768.57943100000000	55.71958500000000	0.26698100000000	0.00000000000000	0.10653800000000	0.00000000000000	0.00000000000000	0.00000000000000	0.00000000000000	0.00000000000000	0.00000000000000	0.00000000000000	20.45401500000000	0.00000000000000	0.00000000000000	0.00000000000000	0.00000000000000	
19.61992400000000	35.97564300000000	767.01455699999997	55.50946100000000	0.26584700000000	0.00000000000000	0.10653500000000	0.00000000000000	0.00000000000000	0.00000000000000	0.00000000000000	0.00000000000000	0.00000000000000	0.00000000000000	20.36321600000000	0.00000000000000	0.00000000000000	0.00000000000000	0.00000000000000	
